<svg width="48.000000" height="48.000000" viewBox="0 0 48 48" fill="none" xmlns="http://www.w3.org/2000/svg" xmlns:xlink="http://www.w3.org/1999/xlink">
	<desc>
			Created with Pixso.
	</desc>
	<defs/>
	<circle cx="24.000000" cy="24.000000" r="24.000000" fill="#FFFFFF" fill-opacity="1.000000"/>
	<circle cx="24.000000" cy="24.000000" r="24.000000" stroke="#979797" stroke-opacity="0" stroke-width="0.000000"/>
	<path d="M24 0C24 0 24 24 0 24C23.57 24.17 24 48 24 48C24 48 24 24 48 24C24 24 24 0 24 0Z" fill="#0B0D17" fill-opacity="1.000000" fill-rule="evenodd"/>
	<path d="M0 24C23.57 24.17 24 48 24 48C24 48 24 24 48 24C24 24 24 0 24 0C24 0 24 24 0 24Z" stroke="#979797" stroke-opacity="0" stroke-width="0.000000"/>
</svg>
